<?xml version="1.0" encoding="UTF-8"?>
<!DOCTYPE svg PUBLIC "-//W3C//DTD SVG 1.1//EN" "http://www.w3.org/Graphics/SVG/1.1/DTD/svg11.dtd">
<svg xmlns="http://www.w3.org/2000/svg" version="1.1" width="215px" height="135px" style="shape-rendering:geometricPrecision; text-rendering:geometricPrecision; image-rendering:optimizeQuality; fill-rule:evenodd; clip-rule:evenodd" xmlns:xlink="http://www.w3.org/1999/xlink">
<g><path style="opacity:0.956" fill="#fefffe" d="M 91.5,-0.5 C 101.833,-0.5 112.167,-0.5 122.5,-0.5C 163.645,6.40028 194.312,28.0669 214.5,64.5C 214.5,65.8333 214.5,67.1667 214.5,68.5C 193.472,106.355 161.472,128.355 118.5,134.5C 110.833,134.5 103.167,134.5 95.5,134.5C 52.6801,128.66 20.6801,106.993 -0.5,69.5C -0.5,67.8333 -0.5,66.1667 -0.5,64.5C 19.6933,28.0652 50.36,6.39849 91.5,-0.5 Z M 85.5,25.5 C 101.33,27.8423 107.83,36.8423 105,52.5C 98.4528,64.3508 88.9528,67.5175 76.5,62C 66.7886,54.1196 64.9552,44.6196 71,33.5C 75.1343,29.3538 79.9676,26.6872 85.5,25.5 Z M 159.5,36.5 C 171.936,44.4348 182.269,54.6014 190.5,67C 160.615,107.851 121.282,121.184 72.5,107C 52.1458,98.648 35.8124,85.3146 23.5,67C 31.3108,54.6892 41.3108,44.5225 53.5,36.5C 48.8488,61.0481 56.1822,81.2147 75.5,97C 105.726,113.355 131.559,108.188 153,81.5C 160.745,67.2855 162.912,52.2855 159.5,36.5 Z"/></g>
</svg>
