<?xml version="1.0" encoding="UTF-8"?>
<!DOCTYPE svg PUBLIC "-//W3C//DTD SVG 1.1//EN" "http://www.w3.org/Graphics/SVG/1.1/DTD/svg11.dtd">
<svg xmlns="http://www.w3.org/2000/svg" version="1.1" width="1142px" height="830px" style="shape-rendering:geometricPrecision; text-rendering:geometricPrecision; image-rendering:optimizeQuality; fill-rule:evenodd; clip-rule:evenodd" xmlns:xlink="http://www.w3.org/1999/xlink">
<g><path style="opacity:0.98" fill="#fefefe" d="M 110.5,414.5 C 123.171,414.333 135.838,414.5 148.5,415C 281.103,550.554 442.436,609.887 632.5,593C 773.06,575.886 892.06,516.553 989.5,415C 1002.17,414.333 1014.83,414.333 1027.5,415C 1030,417.5 1032.5,420 1035,422.5C 1035.26,425.017 1034.59,427.35 1033,429.5C 1019.83,443.333 1006.67,457.167 993.5,471C 1024.2,485.683 1054.86,500.349 1085.5,515C 1089.37,518.534 1092.87,522.367 1096,526.5C 1099.65,533.271 1098.98,539.605 1094,545.5C 1089.24,552.279 1082.91,556.612 1075,558.5C 1035.32,540.992 995.983,522.659 957,503.5C 932.978,523.095 907.812,541.095 881.5,557.5C 911.79,589.291 942.624,620.624 974,651.5C 978.328,658.27 977.995,664.937 973,671.5C 970.167,674.333 967.333,677.167 964.5,680C 957.937,684.995 951.27,685.328 944.5,681C 910.306,646.472 875.806,612.305 841,578.5C 810.821,594.394 779.321,607.061 746.5,616.5C 762.35,655.037 778.35,693.537 794.5,732C 794.136,736.303 792.636,740.137 790,743.5C 785.241,750.279 778.908,754.612 771,756.5C 762.747,754.269 756.08,749.603 751,742.5C 734.333,704.5 717.667,666.5 701,628.5C 663.352,637.187 625.185,642.187 586.5,643.5C 586.281,692.169 585.781,740.836 585,789.5C 570.413,813.224 555.746,813.224 541,789.5C 540.227,740.502 539.727,691.502 539.5,642.5C 505.456,640.869 471.79,636.703 438.5,630C 421.671,671.816 404.838,713.65 388,755.5C 383.237,763.443 376.404,768.443 367.5,770.5C 363.926,770.031 360.592,768.864 357.5,767C 354,763.5 350.5,760 347,756.5C 345.3,753.533 344.133,750.367 343.5,747C 359.718,703.677 376.718,660.677 394.5,618C 363.864,608.6 334.031,597.1 305,583.5C 271.236,615.263 238.069,647.763 205.5,681C 198.717,685.323 192.051,684.99 185.5,680C 180.525,676.03 176.691,671.197 174,665.5C 172.481,660.655 173.147,655.989 176,651.5C 205.861,621.972 235.361,592.139 264.5,562C 249.495,553.166 234.828,543.833 220.5,534C 206.227,523.617 192.06,513.117 178,502.5C 138.034,521.566 97.8674,540.233 57.5,558.5C 53.5289,557.678 49.8622,556.178 46.5,554C 39.7342,549.25 35.4009,542.917 33.5,535C 33.9469,532.044 34.7803,529.211 36,526.5C 39.1311,522.367 42.6311,518.534 46.5,515C 78.5,499.667 110.5,484.333 142.5,469C 128.936,456.105 116.103,442.605 104,428.5C 102.699,426.635 102.365,424.635 103,422.5C 105.705,419.964 108.205,417.297 110.5,414.5 Z"/></g>
</svg>
