<?xml version="1.0" encoding="UTF-8"?>
<!DOCTYPE svg PUBLIC "-//W3C//DTD SVG 1.1//EN" "http://www.w3.org/Graphics/SVG/1.1/DTD/svg11.dtd">
<svg xmlns="http://www.w3.org/2000/svg" version="1.1" width="1142px" height="830px" style="shape-rendering:geometricPrecision; text-rendering:geometricPrecision; image-rendering:optimizeQuality; fill-rule:evenodd; clip-rule:evenodd" xmlns:xlink="http://www.w3.org/1999/xlink">
<g><path style="opacity:0.982" fill="#fefefe" d="M 564.5,41.5 C 568.605,41.2338 572.605,41.7338 576.5,43C 581.667,46.8333 586.167,51.3333 590,56.5C 591.46,103.807 591.96,151.14 591.5,198.5C 626.197,199.314 660.531,203.314 694.5,210.5C 695.5,210.167 696.5,209.833 697.5,209.5C 713,170.5 728.5,131.5 744,92.5C 748.167,88.3333 752.333,84.1667 756.5,80C 762.737,76.5171 768.737,76.8504 774.5,81C 779.833,85.3217 783.999,90.4883 787,96.5C 787.667,99.5 787.667,102.5 787,105.5C 771.629,144.405 756.129,183.238 740.5,222C 772.731,231.536 803.898,243.703 834,258.5C 864.806,228.695 895.306,198.528 925.5,168C 931.592,163.759 937.925,163.426 944.5,167C 948.333,170.833 952.167,174.667 956,178.5C 958.789,183.348 959.122,188.348 957,193.5C 929.695,221.805 902.028,249.805 874,277.5C 873.383,278.449 873.549,279.282 874.5,280C 905.407,298.283 934.74,318.783 962.5,341.5C 998.38,324.393 1034.38,307.56 1070.5,291C 1075.98,289.827 1080.98,290.827 1085.5,294C 1101.8,307.36 1101.47,320.36 1084.5,333C 1055.62,346.94 1026.62,360.606 997.5,374C 1010.06,385.895 1021.9,398.395 1033,411.5C 1036.27,417.472 1036.27,423.472 1033,429.5C 902.441,575.63 738.608,646.797 541.5,643C 384.564,633.335 250.231,574.002 138.5,465C 127.333,453.167 116.167,441.333 105,429.5C 101.735,423.472 101.735,417.472 105,411.5C 115.435,399.063 126.602,387.229 138.5,376C 108.167,361.667 77.8333,347.333 47.5,333C 28.9039,316.702 30.5706,302.702 52.5,291C 55.5,290.333 58.5,290.333 61.5,291C 98.9539,308.227 136.287,325.727 173.5,343.5C 197.337,323.332 222.504,304.999 249,288.5C 249.667,287.833 249.667,287.167 249,286.5C 217.972,255.806 187.305,224.806 157,193.5C 154.96,188.357 155.293,183.357 158,178.5C 162.575,173.254 167.742,168.754 173.5,165C 180.468,163.292 186.468,164.959 191.5,170C 223.667,202.167 255.833,234.333 288,266.5C 319.062,250.219 351.228,236.552 384.5,225.5C 369.058,190.283 353.891,154.949 339,119.5C 337.993,114.889 338.66,110.555 341,106.5C 345.575,101.254 350.742,96.7538 356.5,93C 360.594,92.2327 364.594,92.566 368.5,94C 372.967,97.4651 377.133,101.298 381,105.5C 396.5,141.167 412,176.833 427.5,212.5C 428.333,212.833 429.167,213.167 430,213.5C 468.317,204.44 507.15,199.44 546.5,198.5C 546.333,153.499 546.5,108.499 547,63.5C 547.206,60.3771 547.873,57.3771 549,54.5C 553.503,49.1459 558.669,44.8125 564.5,41.5 Z M 481.5,249.5 C 482.552,249.351 483.552,249.517 484.5,250C 437.22,276.614 404.386,315.447 386,366.5C 363.332,459.177 390.832,533.011 468.5,588C 344.975,565.75 239.975,509.75 153.5,420C 243.945,327.605 353.278,270.772 481.5,249.5 Z M 665.5,252.5 C 790.286,273.556 896.619,329.389 984.5,420C 900.691,506.587 799.357,561.92 680.5,586C 757.932,528.707 783.766,453.54 758,360.5C 742.275,320.104 716.775,287.271 681.5,262C 676.304,258.57 670.971,255.403 665.5,252.5 Z M 563.5,273.5 C 612.872,271.955 654.372,288.955 688,324.5C 720.95,367.321 730.617,414.988 717,467.5C 696.942,529.541 654.442,564.708 589.5,573C 538.803,577.216 495.637,561.383 460,525.5C 421.944,477.093 413.278,423.76 434,365.5C 451.812,322.028 483.312,293.528 528.5,280C 540.153,276.967 551.82,274.801 563.5,273.5 Z"/></g>
<g><path style="opacity:0.99" fill="#fefefe" d="M 562.5,340.5 C 605.648,338.305 635.481,356.972 652,396.5C 662.926,436.724 651.76,469.224 618.5,494C 586.751,512.447 555.418,511.78 524.5,492C 491.754,465.195 482.254,431.695 496,391.5C 509.405,363.05 531.572,346.05 562.5,340.5 Z"/></g>
<g><path style="opacity:0.004" fill="#fefffe" d="M 852.5,584.5 C 852.897,583.475 853.563,583.308 854.5,584C 853.906,584.464 853.239,584.631 852.5,584.5 Z"/></g>
<g><path style="opacity:0.006" fill="#fefffe" d="M 852.5,584.5 C 851.998,586.085 850.998,586.585 849.5,586C 850.244,584.961 851.244,584.461 852.5,584.5 Z"/></g>
<g><path style="opacity:0.037" fill="#fefffe" d="M 749.5,627.5 C 750.782,628.708 750.782,630.042 749.5,631.5C 745.554,633.208 741.554,634.375 737.5,635C 741.396,632.225 745.396,629.725 749.5,627.5 Z"/></g>
</svg>
