<svg id="svg" xmlns="http://www.w3.org/2000/svg" xmlns:xlink="http://www.w3.org/1999/xlink" width="400" height="400">
 <g>
   <path d="M157.261 59.941 C 157.425 106.811,157.275 144.305,156.924 144.088 C 156.571 143.870,30.078 103.142,29.394 103.026 L 28.674 102.904 15.997 141.934 C 9.024 163.400,3.363 181.008,3.417 181.062 C 3.471 181.116,31.960 191.419,66.725 203.959 C 101.490 216.498,130.240 226.895,130.613 227.062 L 131.292 227.367 91.895 281.313 C 70.227 310.983,52.591 335.345,52.704 335.452 C 53.274 335.989,117.651 384.925,117.893 385.005 C 118.049 385.056,136.317 361.079,158.488 331.723 C 180.660 302.366,198.869 278.347,198.953 278.346 C 199.036 278.345,199.267 278.592,199.465 278.894 C 199.664 279.197,218.101 303.627,240.438 333.184 C 262.775 362.740,281.213 387.171,281.412 387.475 C 281.612 387.778,281.909 387.975,282.073 387.912 C 282.349 387.806,348.771 339.709,349.207 339.299 C 349.316 339.197,331.682 313.983,310.021 283.268 C 288.360 252.553,270.684 227.377,270.739 227.321 C 270.795 227.265,299.330 217.500,334.151 205.621 C 368.972 193.742,397.495 183.988,397.537 183.947 C 397.698 183.785,372.287 105.998,372.042 105.904 C 371.899 105.849,343.227 114.424,308.326 124.960 L 244.871 144.115 244.690 127.907 C 244.591 118.992,244.576 89.103,244.656 61.488 L 244.803 11.278 200.947 11.278 L 157.091 11.278 157.261 59.941" stroke="none" fill="#6a6a88" fill-rule="evenodd"></path>
  </g>
</svg>